<?xml version="1.0" encoding="UTF-8"?>
<svg xmlns="http://www.w3.org/2000/svg" xmlns:xlink="http://www.w3.org/1999/xlink" viewBox="0 0 43 43" width="43px" height="43px">
<g id="surface120040685">
<path style=" stroke:none;fill-rule:nonzero;fill:rgb(100%,100%,100%);fill-opacity:1;" d="M 21.5 1.71875 C 32.425781 1.71875 41.28125 10.574219 41.28125 21.5 C 41.28125 32.425781 32.425781 41.28125 21.5 41.28125 C 10.574219 41.28125 1.71875 32.425781 1.71875 21.5 C 1.71875 10.574219 10.574219 1.71875 21.5 1.71875 Z M 28.324219 29.5625 C 28.6875 28.445312 30.390625 17.320312 30.601562 15.128906 C 30.664062 14.464844 30.457031 14.023438 30.046875 13.828125 C 29.546875 13.589844 28.8125 13.707031 27.957031 14.015625 C 26.785156 14.4375 11.8125 20.796875 10.945312 21.164062 C 10.125 21.511719 9.351562 21.890625 9.351562 22.441406 C 9.351562 22.828125 9.582031 23.046875 10.214844 23.273438 C 10.871094 23.507812 12.53125 24.011719 13.511719 24.28125 C 14.453125 24.542969 15.527344 24.316406 16.128906 23.941406 C 16.769531 23.546875 24.132812 18.617188 24.660156 18.1875 C 25.1875 17.753906 25.609375 18.308594 25.179688 18.738281 C 24.746094 19.171875 19.691406 24.078125 19.027344 24.757812 C 18.214844 25.582031 18.789062 26.4375 19.332031 26.777344 C 19.953125 27.167969 24.414062 30.160156 25.085938 30.640625 C 25.757812 31.121094 26.4375 31.335938 27.0625 31.335938 C 27.683594 31.335938 28.011719 30.515625 28.324219 29.5625 Z M 28.324219 29.5625 "/>
</g>
</svg>
